<svg version="1.1" viewBox="0 0 800 666.67" xml:space="preserve" xmlns="http://www.w3.org/2000/svg"><defs><clipPath id="clipPath32"><path d="m5633.2 2639.9c-119.44-57.99-100.45-240.14-180.71-240.28-97.99-0.17-134.09 226.98-358.27 226.98s-255.82-461.53-255.82-461.53-61.32 698.24-373.85 694.41c-312.53-3.82-310.55-603.43-482.64-508.78s-81.1 358.32-332.66 374.14c-251.55 15.83-411.07-543.95-411.07-543.95l-259.57 7.91c3.52 168.13-136.04 437.14-379.34 443.08-243.29 5.93-274.94-354.07-373.84-288.79-98.9 65.27-33.63 634.94-338.25 599.34-304.61-35.61-183.95-690.33-326.37-642.86-142.41 47.47-134.5 267.03-300.66 261.1-166.15-5.93-219.95-328.36-219.95-328.36s-84.66 379.79-290.38 381.24c-89.215 0.63-166.89-87.62-226.26-187.77-6.192-84.83-2.832-172.85 10.671-263.2 136.91-916.25 1182.7-1928.7 2444.4-1827.2 1939.8 156.06 2741.8 1413.4 2654.6 2304.6z"/></clipPath><linearGradient id="linearGradient42" x2="1" gradientTransform="matrix(0 2615.7 2615.7 0 3080 328.28)" gradientUnits="userSpaceOnUse"><stop stop-color="#059a84" offset="0"/><stop stop-color="#059a84" offset=".64171"/><stop stop-color="#11af9b" offset=".99543"/><stop stop-color="#11af9b" offset="1"/></linearGradient></defs><g transform="matrix(1.3333 0 0 -1.3333 0 666.67)"><g transform="scale(.1)"><g fill="#80c4ed"><path d="m2072.6 3576.2h574.97s-30.8 182.48-149.62 115.31c0 0-18.08 162.74-173.07 165.32-154.98 2.58-126.57-185.98-126.57-185.98s-130.01 27.67-125.71-94.65"/><path d="m4412 3998.3s-36.92 243.95-180.66 241.31c-143.73-2.63-147.69-238.68-147.69-238.68s-43.51 213.63-195.16 187.26c-151.65-26.38-167.47-225.5-167.47-225.5-125.28 58.02-155.66-83.19-155.66-83.19h992.29c-13.02 117.57-145.65 118.8-145.65 118.8"/><path d="m2978.6 335.33c-1261.6-101.5-2307.5 910.99-2444.4 1827.2-136.91 916.25 753.01 1598.7 2380.1 1039 0 0 1395.4 790.93 2311.7 176.14s370.69-2831.7-2247.5-3042.3"/></g><path d="m1308.5 2510.7h-574.97s30.8 182.48 149.62 115.32c0 0 18.086 162.73 173.07 165.31 154.98 2.59 126.57-185.98 126.57-185.98s130.01 27.67 125.71-94.65" fill="#a9ddf7"/><path d="m5347.3 2689.3s-36.92 243.96-180.66 241.32c-143.73-2.64-147.69-238.68-147.69-238.68s-43.52 213.62-195.17 187.25-167.47-225.49-167.47-225.49c-125.27 58.02-155.65-83.19-155.65-83.19h992.28c-13.01 117.57-145.64 118.79-145.64 118.79" fill="#a9ddf7"/><g clip-path="url(#clipPath32)"><path d="m5633.2 2639.9c-119.44-57.99-100.45-240.14-180.71-240.28-97.99-0.17-134.09 226.98-358.27 226.98s-255.82-461.53-255.82-461.53-61.32 698.24-373.85 694.41c-312.53-3.82-310.55-603.43-482.64-508.78s-81.1 358.32-332.66 374.14c-251.55 15.83-411.07-543.95-411.07-543.95l-259.57 7.91c3.52 168.13-136.04 437.14-379.34 443.08-243.29 5.93-274.94-354.07-373.84-288.79-98.9 65.27-33.63 634.94-338.25 599.34-304.61-35.61-183.95-690.33-326.37-642.86-142.41 47.47-134.5 267.03-300.66 261.1-166.15-5.93-219.95-328.36-219.95-328.36s-84.66 379.79-290.38 381.24c-89.215 0.63-166.89-87.62-226.26-187.77-6.192-84.83-2.832-172.85 10.671-263.2 136.91-916.25 1182.7-1928.7 2444.4-1827.2 1939.8 156.06 2741.8 1413.4 2654.6 2304.6" fill="url(#linearGradient42)"/></g><g><path d="m5586.3 2107.6c-411.77 580.73-646.37 93.58-646.37 93.58-210.63 87.77-229.94-112.33-259.78-208.88-29.84-96.53-96.54-68.44-93.03-1.74s-36.86 259.77-201.86 252.45c-164.99-7.33-191.32-189.27-265.04-155.92s-96.54 154.46-247.49 129.89c-150.96-24.57-161.49-166.75-161.49-166.75s-960.13-35.1-1122-35.1c-161.93 0-208.01 234.32-401.52 227.74-193.52-6.58-202.74-161.92-246.18-261.97s-139.55-72.4-157.97-10.92c-18.44 61.48-102.69 193.91-272.51 192.59s-233.01-109.27-348.86-223.8-310.68 40.81-442.33 13.16c-49.891-10.47-91.438-29.13-123.83-48.25 272.84-837.19 1239.1-1660.3 2382.6-1568.3 1574.7 126.69 2399.6 979.14 2607.7 1772.3" fill="#63c890"/><path d="m3732.7 910.01s803.65-513.99 1131.3 365.27l-1981.8 193.52-1734.6-246.41s172.66-414.68 585.45-439.57c372.24-22.449 570.51 147.77 570.51 147.77l-61.92-529.08c232.83-61.293 480.37-86.813 736.87-66.18 291.76 23.477 557.72 71.918 798.85 140.23l-44.7 434.45" fill="#4fc182"/><path d="m4075.1 3050.6c-146.05-31.72-132.66-308.65 39.64-259.52 172.31 49.14 99.34 289.71-39.64 259.52" fill="#fff"/><path d="m3976.4 2884c8.93-64.15 54.98-116.68 138.3-92.92 60.67 17.3 90.82 58.34 98.51 102.93-84.64-34.9-175.95-24.53-236.81-10.01" fill="#c2e8fa"/><path d="m3871.8 2477c-97.06-15.55-45.14-141.21 21.34-124.87 59.79 14.69 65.6 138.79-21.34 124.87" fill="#fff"/><path d="m3831.6 2380.3c13.75-20.49 36.61-34.3 61.52-28.18 27.22 6.69 43.2 36.04 44.38 64.74-36.64-27.16-73.9-35.98-105.9-36.56" fill="#c2e8fa"/><path d="m4383.3 3226.9c708.23-349.73 1539.6 688.61 597.17 1152.8-831.97 409.79-1301.8-804.83-597.17-1152.8" fill="#fff"/><path d="m5281.3 3469.6c-479.2-205.6-923.6-115.94-1126.2-53.61 54.77-75.35 130.09-140.63 228.23-189.09 341.66-168.72 711.95-14.37 897.95 242.7" fill="#c2e8fa"/><path d="m4789.4 3763.2 141.2 151.57c18.79 20.18 17.68 51.76-2.49 70.55-20.18 18.79-51.76 17.67-70.56-2.5l-136.36-146.39-136.38 146.39c-18.79 20.17-50.38 21.3-70.54 2.5-20.17-18.79-21.29-50.37-2.5-70.55l141.19-151.57-141.19-151.57c-18.79-20.18-17.67-51.76 2.5-70.55 9.62-8.96 21.83-13.39 34.01-13.39 13.37 0 26.71 5.33 36.53 15.88l136.38 146.4 136.36-146.4c9.84-10.55 23.17-15.88 36.54-15.88 12.18 0 24.4 4.43 34.02 13.39 20.17 18.79 21.28 50.37 2.49 70.55l-141.2 151.57" fill="#262554"/><path d="m4794.1 4562.4-36.64-176.28 80.65-25.99-46.04-150.29 187.65 182.73-113.7 48.85 53.57 85.43-125.49 35.55" fill="#ef2d74"/><path d="m5286.7 3156.6-117.15 136.72-69.85-47.96-90.83 128.29 29.97-260.2 108.14 60.14 34.89-94.62 104.83 77.63" fill="#ef2d74"/><path d="m4052.8 4340.9 136.16-117.81-48.3-69.62 127.85-91.45-260.06 31.23 60.67 107.85-94.45 35.34 78.13 104.46" fill="#fab64c"/><path d="m1147.7 1867.7s-66.04 83.56-83.82 124.37c-17.77 40.81-46.73 127.7-73.059 121.77-26.328-5.92 1.586-140.5 49.639-224.98 0 0-63.459 68.98-86.498 119.01-23.035 50.02-46.078 78.98-63.192 66.48-22.859-16.7 23.43-152.18 95.833-225.9 0 0-64.239 70.55-91.223 100.17-26.988 29.62-49.156 82.4-73.723 67.81-34.226-20.36 47.223-139.86 116.99-219.5 0 0-30.105 35.19-46.562 49.02-16.453 13.82-57.266 48.04-73.063 29.62-15.8-18.44 63.192-102.04 87.543-128.36 0 0 44.758-120.45 114.53-192.2 0 0 201.95 143.94 126.6 312.69" fill="#f575a7"/></g><path d="m1071.7 1903.9s-72.404-21.72-149.42-128.36" fill="none" stroke="#262554" stroke-linecap="round" stroke-linejoin="round" stroke-miterlimit="10" stroke-width="10"/><path d="m1147.7 1867.7s-66.04 83.56-83.82 124.37c-17.77 40.81-46.73 127.7-73.059 121.77-26.328-5.92 1.586-140.5 49.639-224.98 0 0-63.459 68.98-86.498 119.01-23.035 50.02-46.078 78.98-63.192 66.48-22.859-16.7 23.43-152.18 95.833-225.9 0 0-64.239 70.55-91.223 100.17-26.988 29.62-49.156 82.4-73.723 67.81-34.226-20.36 47.223-139.86 116.99-219.5 0 0-30.105 35.19-46.562 49.02-16.453 13.82-57.266 48.04-73.063 29.62-15.8-18.44 63.192-102.04 87.543-128.36" fill="none" stroke="#262554" stroke-linecap="round" stroke-linejoin="round" stroke-miterlimit="10" stroke-width="10"/><path d="m1021.1 1555 144.15 91.49 56.83 99.39s-32.47 82.28-35.76 137.57c-3.3 55.29 5.92 110.58-19.75 112.56-25.67 1.97-50.03-48.72-38.18-129.02 0 0-100.71-36.85-86.88-148.09l-20.41-163.9" fill="#f575a7"/><path d="m1186.3 1883.5c-3.3 55.29 5.92 110.58-19.75 112.56-25.67 1.97-50.03-48.72-38.18-129.02 0 0-100.71-36.85-86.88-148.09" fill="none" stroke="#262554" stroke-linecap="round" stroke-linejoin="round" stroke-miterlimit="10" stroke-width="10"/><path d="m4960.1 1468.8c69.78 71.75 114.53 192.2 114.53 192.2 24.36 26.33 103.35 109.93 87.55 128.36-15.8 18.42-56.61-15.81-73.06-29.62-16.46-13.83-46.57-49.02-46.57-49.02 69.78 79.65 151.23 199.14 117 219.5-24.57 14.6-46.74-38.18-73.72-67.8-26.99-29.63-91.23-100.17-91.23-100.17 72.4 73.72 118.69 209.19 95.84 225.89-17.12 12.5-40.16-16.46-63.19-66.48-23.04-50.03-86.5-119-86.5-119 48.04 84.47 75.96 219.05 49.63 224.98-26.33 5.91-55.29-80.97-73.06-121.78s-91.28-138.87-91.28-138.87l134.06-298.19" fill="#f575a7"/><path d="m4909.4 1817.7s72.41-21.72 149.42-128.35" fill="none" stroke="#262554" stroke-linecap="round" stroke-linejoin="round" stroke-miterlimit="10" stroke-width="10"/><path d="m5074.6 1661c24.36 26.33 103.35 109.93 87.55 128.36-15.8 18.42-56.61-15.81-73.06-29.62-16.46-13.83-46.57-49.02-46.57-49.02 69.78 79.65 151.23 199.14 117 219.5-24.57 14.6-46.74-38.18-73.72-67.8-26.99-29.63-91.23-100.17-91.23-100.17 72.4 73.72 118.69 209.19 95.84 225.89-17.12 12.5-40.16-16.46-63.19-66.48-23.04-50.03-86.5-119-86.5-119 48.04 84.47 75.96 219.05 49.63 224.98-26.33 5.91-55.29-80.97-73.06-121.78s-91.28-138.87-91.28-138.87" fill="none" stroke="#262554" stroke-linecap="round" stroke-linejoin="round" stroke-miterlimit="10" stroke-width="10"/><path d="m4960.1 1468.8-144.15 91.49-56.82 99.4s32.47 82.27 35.76 137.57c3.29 55.29-5.92 110.57 19.75 112.55s50.02-48.71 38.17-129.01c0 0 100.71-36.86 86.89-148.1 0 0 48.78-95.2 20.4-163.9" fill="#f575a7"/><path d="m4794.9 1797.3c3.29 55.29-5.92 110.57 19.75 112.55s50.02-48.71 38.17-129.01c0 0 100.71-36.86 86.89-148.1" fill="none" stroke="#262554" stroke-linecap="round" stroke-linejoin="round" stroke-miterlimit="10" stroke-width="10"/><g><path d="m4759.1 1659.7-36.86-45.65c-118.48 15.8-191.33-86.88-287.87-195.71-96.54-108.82-254.51-59.68-294.88 57.93-40.37 117.6-119.36 424.78-375.63 698.59-256.27 273.83-730.19 164.27-730.19 164.27s-393.19 86.74-612.6-36.13c-219.4-122.87-317.7-403.71-379.13-610.83-61.44-207.12-156.22-358.08-287.87-335.26-131.64 22.82-214.14 183.65-270.09 215.24-55.95 31.6-146.12 60.56-218.53 116.5l-43.44 57.27s-133.73-22.78-225.01-163.2l33.899-55.55s37.74-229.5 148.32-380.89c110.58-151.4 244.86-292.26 539.75-305.42 375.56-16.77 579.24 154.02 656.91 348.86l-18.29-815.48c198.5-41.14 406.59-56.14 620.95-38.898 260.63 20.969 500.64 61.879 720.78 119.06l-13.35 632.41c106.21-151.23 279.83-293.56 555.32-284.12 576.61 19.742 689.82 620.04 689.82 620.04l28.96 46.08c-101.36 148.76-200.97 190.89-200.97 190.89" fill="#5d3b91"/><path d="m4906.3 1334.1c-67.32-114.63-238.39-340.76-562.56-394.18-438.96-72.32-661.84 340.47-661.84 340.47l4.08-193.61c106.21-151.23 279.83-293.56 555.32-284.12 437.24 14.972 607.98 363.71 665 531.44" fill="#563688"/><path d="m2375.9 1189.7 3.56 158.85s-231.1-367.47-663.19-408.62c-307.78-29.3-536.95 264.1-646.94 435.39 23.45-72.87 58.92-159.26 109.91-229.06 110.58-151.4 244.86-292.26 539.75-305.42 375.56-16.77 579.24 154.02 656.91 348.86" fill="#563688"/></g><g fill="none" stroke="#262554" stroke-linecap="round" stroke-linejoin="round" stroke-miterlimit="10" stroke-width="10"><path d="m1052 1539.4c64.94 21.95 143.83 73.03 191.32 132.09"/><path d="m4731.7 1601.1s100.05-117.16 177.72-165.21"/><path d="m2645.8 1493.8s327.78-155.48 679.29-57.92c0 0-94.79-186.93-363.34-379.14"/><path d="m2969.6 706.57s192.2 310.69 252.76 451.55c60.56 140.85 80.96 202.08 130.98 203.38"/><path d="m3697.5 540.8-11.52 546-12.08 572.91"/><path d="m2360 481.17 15.89 708.54 11.42 509.36"/><path d="m3686 1086.8c106.21-151.23 279.83-293.56 555.32-284.12 576.61 19.742 689.82 620.04 689.82 620.04"/><path d="m1037.5 1493.8c14.92-69.14 56.88-231.35 141.75-347.54 110.58-151.4 244.86-292.26 539.75-305.42 375.56-16.77 579.24 154.02 656.91 348.86"/></g><path d="m2852.4 2364.4s-19.02 109.56 9.29 139.84c28.3 30.28 282.38 31.59 304.1 0s19.01-145.53 19.01-145.53-130.4-122.3-332.4 5.69" fill="#5d3b91"/><path d="m3183.2 2423.2c-2.16 31.47-6.94 65.73-17.4 80.94-21.72 31.59-275.8 30.28-304.1 0-14.14-15.13-16.47-50.06-15.26-81.22 69.54-18.4 203.35-41.91 336.76 0.28" fill="#563688"/><path d="m3170.7 2347.7c-37.3-25.85-146.52-82.27-300.05 5.58" fill="none" stroke="#262554" stroke-linecap="round" stroke-linejoin="round" stroke-miterlimit="10" stroke-width="10"/><path d="m2482.5 2894.1s-117.6-226.87 85.13-343.6c202.74-116.72 562.57-164.99 866.23-8.77s133.4 403.71 133.4 403.71l1.75 175.53s95.98 140.42 126.1 351.05-46.23 256.05-100.21 255.39c-53.97-0.66-124.4-30.28-240.25-6.58 0 0 28.74 31.16 7.68 52.66s-143.93-10.53-257.14-21.06c-113.22-10.53-485.78-1.32-614.79-279.09-115.08-247.78-41.82-439.25-41.82-439.25l33.92-139.99" fill="#262554"/><path d="m2526.3 3167.1s-193.08 133.4-258.03-67.57c-65.57-202.92 191.33-276.46 258.03-168.51 0 0-43.01 142.18 0 236.08" fill="#f575a7"/><path d="m2326.2 3045.9s19.74 90.22 121.77 77.71" fill="none" stroke="#262554" stroke-linecap="round" stroke-linejoin="round" stroke-miterlimit="10" stroke-width="10"/><path d="m2419.6 3026.2s-48.13 28.99-49.41 82.29" fill="none" stroke="#262554" stroke-linecap="round" stroke-linejoin="round" stroke-miterlimit="10" stroke-width="10"/><path d="m3543.9 3153.9s101.36 92.19 198.78-45.4-78.54-301.29-184.51-218.94c0 0 3.42 49.14-14.27 107.25-17.9 58.75 0 157.09 0 157.09" fill="#f575a7"/><path d="m3591.2 3091.2s77.3 24.21 116.13-58.62" fill="none" stroke="#262554" stroke-linecap="round" stroke-linejoin="round" stroke-miterlimit="10" stroke-width="10"/><path d="m3598.9 3007.5s43.92 26.9 58.74 78.19" fill="none" stroke="#262554" stroke-linecap="round" stroke-linejoin="round" stroke-miterlimit="10" stroke-width="10"/><path d="m2587.9 3203.4s-87.77-186.05 21.06-261.53 303.87 62.28 395.15 57.89c91.27-4.39 183.21-81.59 292.04-68.42 108.83 13.16 183.43 80.65 184.3 223.31 0 0-117.16 10.58-167.19 131.69 0 0-207.99-57.92-390.98 104 0 0-80.31-188.25-334.38-186.94" fill="#f575a7"/><path d="m3016.6 3103.8s-23.82-41.37-66.55-61.93c0 0 24.3-19.5 57.41-21.84" fill="none" stroke="#262554" stroke-linecap="round" stroke-linejoin="round" stroke-miterlimit="10" stroke-width="10"/><path d="m3091.1 2879.7c0 11.18-9.07 20.25-20.25 20.25s-20.25-9.07-20.25-20.25c0-11.19 9.07-20.26 20.25-20.26s20.25 9.07 20.25 20.26" fill="#f575a7"/><path d="m3154.4 3230.4s105.49 19.89 197.8-57.91" fill="none" stroke="#262554" stroke-linecap="round" stroke-linejoin="round" stroke-miterlimit="10" stroke-width="10"/><path d="m3197 3115.1c0-12.77-6.2-23.12-13.85-23.12-7.64 0-13.84 10.35-13.84 23.12s6.2 23.12 13.84 23.12c7.65 0 13.85-10.35 13.85-23.12" fill="#262554"/><path d="m2739.7 3111.7c0-12.77-6.2-23.12-13.84-23.12-7.65 0-13.85 10.35-13.85 23.12s6.2 23.12 13.85 23.12c7.64 0 13.84-10.35 13.84-23.12" fill="#262554"/><path d="m2685 3162.6s77.47-0.11 188.57-10.16" fill="none" stroke="#262554" stroke-linecap="round" stroke-linejoin="round" stroke-miterlimit="10" stroke-width="10"/><g><path d="m2750.1 2926.5c-3.02 44.62-40.07 79.91-85.46 79.91-33.24 0-61.85-19.04-76.07-46.7 5.88-6.43 12.56-12.46 20.35-17.86 38.92-26.99 88.89-26.65 141.18-15.35" fill="#f35d94"/><path d="m3250.6 2930.9c14.88-1.32 30.01-1.44 45.53 0.44 43.53 5.27 81.45 19.4 111.5 43.39-15.34 23.23-41.53 38.65-71.45 38.65-46.25 0-83.85-36.65-85.58-82.48" fill="#f35d94"/><path d="m1215.6 4282.7c-789.87 0.8-1076.9-1298-26.33-1298 927.42 0 812.21 1297.2 26.33 1298" fill="#fff"/><path d="m603.23 3233c102.78-146.52 291.96-248.3 585.99-248.3 299.5 0 490.12 135.37 584.67 318.6-543.25-317.31-968.2-178.82-1170.7-70.3" fill="#c2e8fa"/><path d="m1086.8 3992c0 68.82-55.79 124.62-124.62 124.62-68.828 0-124.62-55.8-124.62-124.62 0-68.83 55.793-124.63 124.62-124.63 68.831 0 124.62 55.8 124.62 124.63" fill="#fab64c"/><path d="m1086.6 3988.2c-61.4-89.2-163.73-86.91-218.4-77.88 22.848-26.25 56.426-42.93 93.965-42.93 67.541 0 122.4 53.76 124.43 120.81" fill="#f9a742"/></g><g fill="none" stroke="#262554" stroke-linecap="round" stroke-linejoin="round" stroke-miterlimit="10" stroke-width="10"><path d="m933.25 4011.2c0 11.47-9.297 20.77-20.769 20.77-11.469 0-20.774-9.3-20.774-20.77"/><path d="m991.01 4011.2c0 11.47 9.298 20.77 20.768 20.77s20.77-9.3 20.77-20.77"/><path d="m899.49 3982.8c12.528-21.62 35.856-36.2 62.637-36.2s50.111 14.58 62.641 36.2"/></g><path d="m1891.6 3450.4c17.53 66.56-22.23 134.72-88.79 152.25-66.56 17.52-134.72-22.23-152.24-88.79-17.53-66.57 22.22-134.72 88.79-152.25 66.55-17.52 134.72 22.23 152.24 88.79" fill="#fab64c"/><path d="m1890.5 3446.8c-82.08-70.62-180.46-42.35-231.02-19.7 15.41-31.21 43.63-55.88 79.94-65.44 65.31-17.2 132.05 20.83 151.08 85.14" fill="#f9a742"/><g fill="none" stroke="#262554" stroke-linecap="round" stroke-linejoin="round" stroke-miterlimit="10" stroke-width="10"><path d="m1748.1 3508c2.92 11.09-3.7 22.45-14.8 25.37-11.09 2.92-22.45-3.7-25.37-14.8"/><path d="m1804 3493.3c2.92 11.09 14.28 17.72 25.37 14.79 11.1-2.91 17.72-14.27 14.8-25.37"/><path d="m1708.2 3489.2c6.61-24.1 25.46-44.14 51.36-50.96 25.89-6.81 52.17 1.35 69.79 19.07"/></g><g><path d="m1062.9 3081.3c7.9 54.42 103.56 60.56 96.54-21.94-4.99-58.68-51.73-96.48-78.3-113.43-11.1-7.08-25.39-7.08-36.49 0-26.57 16.95-73.301 54.75-78.29 113.43-7.023 82.5 88.64 76.36 96.54 21.94" fill="#ef2d74"/><path d="m1159.4 3059.4c0.09 1.15 0.1 2.21 0.16 3.32-46.42-74.28-109.14-89.7-147.43-91.38 11.52-10.97 23.23-19.46 32.48-25.37 11.1-7.08 25.39-7.08 36.49 0 26.57 16.95 73.31 54.75 78.3 113.43" fill="#ee1f61"/><path d="m864.23 3256.1c7.293 50.24 95.628 55.92 89.144-20.26-4.609-54.18-47.766-89.1-72.297-104.75-10.254-6.53-23.441-6.53-33.695 0-24.535 15.65-67.688 50.57-72.301 104.75-6.476 76.18 81.852 70.5 89.149 20.26" fill="#ef2d74"/><path d="m953.37 3235.8c0.086 1.05 0.094 2.04 0.149 3.06-42.872-68.59-100.79-82.83-136.14-84.38 10.648-10.13 21.449-17.97 30-23.43 10.254-6.53 23.441-6.53 33.695 0 24.531 15.65 67.688 50.57 72.297 104.75" fill="#ee1f61"/><path d="m1172.3 3363.5c-13.79 0-27.07 5.71-36.57 15.94l-205.37 221.17c-18.757 20.2-17.589 51.79 2.614 70.55 20.203 18.75 51.789 17.58 70.544-2.61l158.96-171.21 179.66 317.18c13.59 23.99 44.05 32.43 68.03 18.83 23.99-13.58 32.42-44.04 18.83-68.03l-213.26-376.51c-7.85-13.85-21.82-23.13-37.63-24.98-1.94-0.23-3.88-0.33-5.81-0.33" fill="#11af9b"/><path d="m1879.7 3012.2c-149.41 3.69-201.86-268.55-22.82-261.53s165 258.02 22.82 261.53" fill="#fff"/><path d="m1748.5 2821.2c11.96-41.69 46.17-72.97 108.36-70.53 67.96 2.66 108.04 40.51 123.91 86.6-84.15-54.64-177.4-35.89-232.27-16.07" fill="#c2e8fa"/><path d="m2139.3 2650.7c-97.99 7.84-77.24-126.54-8.78-126.38 61.57 0.15 96.54 119.36 8.78 126.38" fill="#fff"/><path d="m2186 2568c-42.23-20.54-82.15-13.61-107.29-4.73 9.02-21.74 27.36-38.96 51.87-38.9 25.01 0.06 45.64 19.77 55.42 43.63" fill="#c2e8fa"/></g><g fill="#262554"><path d="m3018.2 4065.5v-11.76c0-18.31-13.74-32.05-32.05-32.05-16.98 0-32.02 13.74-32.02 32.05v11.76c0 17.65 15.04 32.03 32.02 32.03 18.31 0 32.05-14.38 32.05-32.03zm0 143.18v-42.51c0-18.28-13.74-32.02-32.05-32.02-16.98 0-32.02 13.74-32.02 32.02v68.01c0 0.64 0.67 0.64 0.67 1.3-0.67 0.67-0.67 0.67-0.67 1.31 0 17.01 15.04 32.04 32.02 32.04 41.2 0 74.55 32.69 74.55 73.23 0 41.18-33.35 73.22-74.55 73.22-26.8 0-50.33-14.39-62.77-35.96-9.12-15.7-28.74-20.92-44.44-11.76-15.04 9.13-20.26 28.1-11.1 43.78 23.52 40.54 67.98 68.01 118.31 68.01 75.86 0 137.96-61.46 137.96-137.29 0-64.74-45.12-119.01-105.91-133.38"/><path d="m2663.5 4211.8-0.32 9.16c-0.5 14.25 9.82 25.32 24.08 25.82 13.22 0.46 25.3-9.83 25.8-24.09l0.32-9.16c0.48-13.74-10.84-25.33-24.06-25.8-14.26-0.49-25.34 10.33-25.82 24.07zm3.89-111.48-1.15 33.1c-0.5 14.24 9.81 25.3 24.07 25.8 13.23 0.46 25.31-9.83 25.81-24.06l1.84-52.95c0.02-0.5-0.5-0.52-0.48-1.03 0.54-0.5 0.54-0.5 0.56-1 0.46-13.24-10.84-25.36-24.07-25.82-32.08-1.12-57.15-27.48-56.05-59.04 1.12-32.06 27.95-56.11 60.03-54.98 20.87 0.72 38.8 12.57 47.89 29.7 6.68 12.47 21.82 17.07 34.29 10.36 11.96-6.69 16.54-21.33 9.84-33.78-17.22-32.21-51.08-54.8-90.27-56.17-59.07-2.06-109.08 44.11-111.15 103.15-1.76 50.4 31.89 93.88 78.84 106.72"/><path d="m3221.8 3963.8-6.19-6.75c-9.65-10.51-24.77-11.16-35.28-1.51-9.75 8.94-11.14 24.75-1.5 35.26l6.2 6.75c9.3 10.13 25.5 10.46 35.25 1.51 10.51-9.65 10.82-25.13 1.52-35.26zm75.43 82.18-22.39-24.4c-9.64-10.49-24.76-11.15-35.27-1.5-9.74 8.95-11.14 24.76-1.51 35.25l35.83 39.03c0.34 0.37 0.72 0.01 1.07 0.4-0.03 0.73-0.03 0.73 0.3 1.1 8.96 9.76 25.52 10.47 35.26 1.52 23.65-21.7 60.01-20.51 81.37 2.76 21.69 23.63 19.43 59.59-4.22 81.3-15.38 14.12-36.47 18.25-54.96 12.42-13.52-4.2-27.52 3.14-31.72 16.67-3.82 13.16 3.19 26.8 16.7 30.97 34.86 10.87 74.85 3.23 103.73-23.29 43.54-39.96 46.81-107.95 6.86-151.48-34.1-37.15-88.59-44.53-131.05-20.75"/></g></g></g></svg>
